<svg xmlns="http://www.w3.org/2000/svg" version="1.1" xmlns:xlink="http://www.w3.org/1999/xlink" xmlns:svgjs="http://svgjs.dev/svgjs" width="1920" height="1080" preserveAspectRatio="none" viewBox="0 0 1440 560">
    <g mask="url(&quot;#SvgjsMask1014&quot;)" fill="none">
        <rect width="1440" height="560" x="0" y="0" fill="rgba(15, 33, 103, 1)"></rect>
        <path d="M-86.94 392.79L-86.94 392.79" stroke="rgba(54, 82, 173, 1)" stroke-width="1.5"></path>
        <path d="M-86.94 392.79L-90.71 527.72" stroke="rgba(54, 82, 173, 1)" stroke-width="1.5"></path>
        <path d="M-86.94 392.79L39.45 527.97" stroke="rgba(54, 82, 173, 1)" stroke-width="1.5"></path>
        <path d="M-86.94 392.79L111.09 378.91" stroke="rgba(54, 82, 173, 1)" stroke-width="1.5"></path>
        <path d="M-86.94 392.79L-40.02 699.65" stroke="rgba(54, 82, 173, 1)" stroke-width="1.5"></path>
        <path d="M-86.94 392.79L241.99 373.46" stroke="rgba(54, 82, 173, 1)" stroke-width="1.5"></path>
        <path d="M-86.94 392.79L238.67 498.04" stroke="rgba(54, 82, 173, 1)" stroke-width="1.5"></path>
        <path d="M-90.71 527.72L-90.71 527.72" stroke="rgba(54, 82, 173, 1)" stroke-width="1.5"></path>
        <path d="M-90.71 527.72L39.45 527.97" stroke="rgba(54, 82, 173, 1)" stroke-width="1.5"></path>
        <path d="M-90.71 527.72L-40.02 699.65" stroke="rgba(54, 82, 173, 1)" stroke-width="1.5"></path>
        <path d="M-90.71 527.72L77.09 693.6" stroke="rgba(54, 82, 173, 1)" stroke-width="1.5"></path>
        <path d="M-40.02 699.65L-40.02 699.65" stroke="rgba(54, 82, 173, 1)" stroke-width="1.5"></path>
        <path d="M-40.02 699.65L77.09 693.6" stroke="rgba(54, 82, 173, 1)" stroke-width="1.5"></path>
        <path d="M-40.02 699.65L39.45 527.97" stroke="rgba(54, 82, 173, 1)" stroke-width="1.5"></path>
        <path d="M-40.02 699.65L220.47 670.26" stroke="rgba(54, 82, 173, 1)" stroke-width="1.5"></path>
        <path d="M111.09 378.91L111.09 378.91" stroke="rgba(54, 82, 173, 1)" stroke-width="1.5"></path>
        <path d="M111.09 378.91L241.99 373.46" stroke="rgba(54, 82, 173, 1)" stroke-width="1.5"></path>
        <path d="M111.09 378.91L39.45 527.97" stroke="rgba(54, 82, 173, 1)" stroke-width="1.5"></path>
        <path d="M111.09 378.91L238.67 498.04" stroke="rgba(54, 82, 173, 1)" stroke-width="1.5"></path>
        <path d="M111.09 378.91L-90.71 527.72" stroke="rgba(54, 82, 173, 1)" stroke-width="1.5"></path>
        <path d="M39.45 527.97L39.45 527.97" stroke="rgba(54, 82, 173, 1)" stroke-width="1.5"></path>
        <path d="M77.09 693.6L77.09 693.6" stroke="rgba(54, 82, 173, 1)" stroke-width="1.5"></path>
        <path d="M77.09 693.6L220.47 670.26" stroke="rgba(54, 82, 173, 1)" stroke-width="1.5"></path>
        <path d="M77.09 693.6L39.45 527.97" stroke="rgba(54, 82, 173, 1)" stroke-width="1.5"></path>
        <path d="M241.99 373.46L241.99 373.46" stroke="rgba(54, 82, 173, 1)" stroke-width="1.5"></path>
        <path d="M241.99 373.46L238.67 498.04" stroke="rgba(54, 82, 173, 1)" stroke-width="1.5"></path>
        <path d="M241.99 373.46L367.99 364.24" stroke="rgba(54, 82, 173, 1)" stroke-width="1.5"></path>
        <path d="M241.99 373.46L410.95 535.98" stroke="rgba(54, 82, 173, 1)" stroke-width="1.5"></path>
        <path d="M241.99 373.46L39.45 527.97" stroke="rgba(54, 82, 173, 1)" stroke-width="1.5"></path>
        <path d="M238.67 498.04L238.67 498.04" stroke="rgba(54, 82, 173, 1)" stroke-width="1.5"></path>
        <path d="M238.67 498.04L220.47 670.26" stroke="rgba(54, 82, 173, 1)" stroke-width="1.5"></path>
        <path d="M220.47 670.26L220.47 670.26" stroke="rgba(54, 82, 173, 1)" stroke-width="1.5"></path>
        <path d="M220.47 670.26L345.45 691.65" stroke="rgba(54, 82, 173, 1)" stroke-width="1.5"></path>
        <path d="M367.99 364.24L367.99 364.24" stroke="rgba(54, 82, 173, 1)" stroke-width="1.5"></path>
        <path d="M367.99 364.24L530.48 356.62" stroke="rgba(54, 82, 173, 1)" stroke-width="1.5"></path>
        <path d="M367.99 364.24L410.95 535.98" stroke="rgba(54, 82, 173, 1)" stroke-width="1.5"></path>
        <path d="M367.99 364.24L238.67 498.04" stroke="rgba(54, 82, 173, 1)" stroke-width="1.5"></path>
        <path d="M367.99 364.24L513.95 511.27" stroke="rgba(54, 82, 173, 1)" stroke-width="1.5"></path>
        <path d="M367.99 364.24L111.09 378.91" stroke="rgba(54, 82, 173, 1)" stroke-width="1.5"></path>
        <path d="M410.95 535.98L410.95 535.98" stroke="rgba(54, 82, 173, 1)" stroke-width="1.5"></path>
        <path d="M410.95 535.98L513.95 511.27" stroke="rgba(54, 82, 173, 1)" stroke-width="1.5"></path>
        <path d="M410.95 535.98L345.45 691.65" stroke="rgba(54, 82, 173, 1)" stroke-width="1.5"></path>
        <path d="M410.95 535.98L238.67 498.04" stroke="rgba(54, 82, 173, 1)" stroke-width="1.5"></path>
        <path d="M345.45 691.65L345.45 691.65" stroke="rgba(54, 82, 173, 1)" stroke-width="1.5"></path>
        <path d="M345.45 691.65L506.34 697.05" stroke="rgba(54, 82, 173, 1)" stroke-width="1.5"></path>
        <path d="M530.48 356.62L530.48 356.62" stroke="rgba(54, 82, 173, 1)" stroke-width="1.5"></path>
        <path d="M530.48 356.62L513.95 511.27" stroke="rgba(54, 82, 173, 1)" stroke-width="1.5"></path>
        <path d="M530.48 356.62L695.52 252.24" stroke="rgba(54, 82, 173, 1)" stroke-width="1.5"></path>
        <path d="M513.95 511.27L513.95 511.27" stroke="rgba(54, 82, 173, 1)" stroke-width="1.5"></path>
        <path d="M513.95 511.27L689.26 490.76" stroke="rgba(54, 82, 173, 1)" stroke-width="1.5"></path>
        <path d="M506.34 697.05L506.34 697.05" stroke="rgba(54, 82, 173, 1)" stroke-width="1.5"></path>
        <path d="M506.34 697.05L513.95 511.27" stroke="rgba(54, 82, 173, 1)" stroke-width="1.5"></path>
        <path d="M506.34 697.05L410.95 535.98" stroke="rgba(54, 82, 173, 1)" stroke-width="1.5"></path>
        <path d="M506.34 697.05L699.37 651.62" stroke="rgba(54, 82, 173, 1)" stroke-width="1.5"></path>
        <path d="M506.34 697.05L689.26 490.76" stroke="rgba(54, 82, 173, 1)" stroke-width="1.5"></path>
        <path d="M506.34 697.05L220.47 670.26" stroke="rgba(54, 82, 173, 1)" stroke-width="1.5"></path>
        <path d="M695.52 252.24L695.52 252.24" stroke="rgba(54, 82, 173, 1)" stroke-width="1.5"></path>
        <path d="M695.52 252.24L823.86 232.2" stroke="rgba(54, 82, 173, 1)" stroke-width="1.5"></path>
        <path d="M695.52 252.24L801.42 401.39" stroke="rgba(54, 82, 173, 1)" stroke-width="1.5"></path>
        <path d="M695.52 252.24L689.26 490.76" stroke="rgba(54, 82, 173, 1)" stroke-width="1.5"></path>
        <path d="M695.52 252.24L954.35 398.01" stroke="rgba(54, 82, 173, 1)" stroke-width="1.5"></path>
        <path d="M689.26 490.76L689.26 490.76" stroke="rgba(54, 82, 173, 1)" stroke-width="1.5"></path>
        <path d="M689.26 490.76L801.42 401.39" stroke="rgba(54, 82, 173, 1)" stroke-width="1.5"></path>
        <path d="M689.26 490.76L699.37 651.62" stroke="rgba(54, 82, 173, 1)" stroke-width="1.5"></path>
        <path d="M689.26 490.76L530.48 356.62" stroke="rgba(54, 82, 173, 1)" stroke-width="1.5"></path>
        <path d="M689.26 490.76L827.32 679.32" stroke="rgba(54, 82, 173, 1)" stroke-width="1.5"></path>
        <path d="M699.37 651.62L699.37 651.62" stroke="rgba(54, 82, 173, 1)" stroke-width="1.5"></path>
        <path d="M699.37 651.62L827.32 679.32" stroke="rgba(54, 82, 173, 1)" stroke-width="1.5"></path>
        <path d="M823.86 232.2L823.86 232.2" stroke="rgba(54, 82, 173, 1)" stroke-width="1.5"></path>
        <path d="M823.86 232.2L801.42 401.39" stroke="rgba(54, 82, 173, 1)" stroke-width="1.5"></path>
        <path d="M823.86 232.2L1005.19 197.34" stroke="rgba(54, 82, 173, 1)" stroke-width="1.5"></path>
        <path d="M823.86 232.2L954.35 398.01" stroke="rgba(54, 82, 173, 1)" stroke-width="1.5"></path>
        <path d="M823.86 232.2L976.56 50.22" stroke="rgba(54, 82, 173, 1)" stroke-width="1.5"></path>
        <path d="M801.42 401.39L801.42 401.39" stroke="rgba(54, 82, 173, 1)" stroke-width="1.5"></path>
        <path d="M801.42 401.39L954.35 398.01" stroke="rgba(54, 82, 173, 1)" stroke-width="1.5"></path>
        <path d="M827.32 679.32L827.32 679.32" stroke="rgba(54, 82, 173, 1)" stroke-width="1.5"></path>
        <path d="M827.32 679.32L955.36 696.72" stroke="rgba(54, 82, 173, 1)" stroke-width="1.5"></path>
        <path d="M976.6 -76.6L976.6 -76.6" stroke="rgba(54, 82, 173, 1)" stroke-width="1.5"></path>
        <path d="M976.6 -76.6L976.56 50.22" stroke="rgba(54, 82, 173, 1)" stroke-width="1.5"></path>
        <path d="M976.6 -76.6L1116.19 111.92" stroke="rgba(54, 82, 173, 1)" stroke-width="1.5"></path>
        <path d="M976.6 -76.6L1244.83 -43.5" stroke="rgba(54, 82, 173, 1)" stroke-width="1.5"></path>
        <path d="M976.6 -76.6L1005.19 197.34" stroke="rgba(54, 82, 173, 1)" stroke-width="1.5"></path>
        <path d="M976.6 -76.6L1107.01 233.42" stroke="rgba(54, 82, 173, 1)" stroke-width="1.5"></path>
        <path d="M976.56 50.22L976.56 50.22" stroke="rgba(54, 82, 173, 1)" stroke-width="1.5"></path>
        <path d="M976.56 50.22L1005.19 197.34" stroke="rgba(54, 82, 173, 1)" stroke-width="1.5"></path>
        <path d="M976.56 50.22L1116.19 111.92" stroke="rgba(54, 82, 173, 1)" stroke-width="1.5"></path>
        <path d="M1005.19 197.34L1005.19 197.34" stroke="rgba(54, 82, 173, 1)" stroke-width="1.5"></path>
        <path d="M1005.19 197.34L1107.01 233.42" stroke="rgba(54, 82, 173, 1)" stroke-width="1.5"></path>
        <path d="M1005.19 197.34L1116.19 111.92" stroke="rgba(54, 82, 173, 1)" stroke-width="1.5"></path>
        <path d="M1005.19 197.34L1109.74 354.93" stroke="rgba(54, 82, 173, 1)" stroke-width="1.5"></path>
        <path d="M954.35 398.01L954.35 398.01" stroke="rgba(54, 82, 173, 1)" stroke-width="1.5"></path>
        <path d="M954.35 398.01L976.39 549.46" stroke="rgba(54, 82, 173, 1)" stroke-width="1.5"></path>
        <path d="M976.39 549.46L976.39 549.46" stroke="rgba(54, 82, 173, 1)" stroke-width="1.5"></path>
        <path d="M976.39 549.46L1106.63 536.97" stroke="rgba(54, 82, 173, 1)" stroke-width="1.5"></path>
        <path d="M976.39 549.46L955.36 696.72" stroke="rgba(54, 82, 173, 1)" stroke-width="1.5"></path>
        <path d="M976.39 549.46L827.32 679.32" stroke="rgba(54, 82, 173, 1)" stroke-width="1.5"></path>
        <path d="M976.39 549.46L1142.73 657.48" stroke="rgba(54, 82, 173, 1)" stroke-width="1.5"></path>
        <path d="M955.36 696.72L955.36 696.72" stroke="rgba(54, 82, 173, 1)" stroke-width="1.5"></path>
        <path d="M955.36 696.72L1142.73 657.48" stroke="rgba(54, 82, 173, 1)" stroke-width="1.5"></path>
        <path d="M955.36 696.72L1106.63 536.97" stroke="rgba(54, 82, 173, 1)" stroke-width="1.5"></path>
        <path d="M955.36 696.72L699.37 651.62" stroke="rgba(54, 82, 173, 1)" stroke-width="1.5"></path>
        <path d="M955.36 696.72L1238.52 691.21" stroke="rgba(54, 82, 173, 1)" stroke-width="1.5"></path>
        <path d="M1116.19 111.92L1116.19 111.92" stroke="rgba(54, 82, 173, 1)" stroke-width="1.5"></path>
        <path d="M1116.19 111.92L1107.01 233.42" stroke="rgba(54, 82, 173, 1)" stroke-width="1.5"></path>
        <path d="M1116.19 111.92L1243.63 197.64" stroke="rgba(54, 82, 173, 1)" stroke-width="1.5"></path>
        <path d="M1107.01 233.42L1107.01 233.42" stroke="rgba(54, 82, 173, 1)" stroke-width="1.5"></path>
        <path d="M1107.01 233.42L1109.74 354.93" stroke="rgba(54, 82, 173, 1)" stroke-width="1.5"></path>
        <path d="M1107.01 233.42L1243.63 197.64" stroke="rgba(54, 82, 173, 1)" stroke-width="1.5"></path>
        <path d="M1109.74 354.93L1109.74 354.93" stroke="rgba(54, 82, 173, 1)" stroke-width="1.5"></path>
        <path d="M1109.74 354.93L954.35 398.01" stroke="rgba(54, 82, 173, 1)" stroke-width="1.5"></path>
        <path d="M1109.74 354.93L1106.63 536.97" stroke="rgba(54, 82, 173, 1)" stroke-width="1.5"></path>
        <path d="M1109.74 354.93L1287.22 407.97" stroke="rgba(54, 82, 173, 1)" stroke-width="1.5"></path>
        <path d="M1109.74 354.93L1243.63 197.64" stroke="rgba(54, 82, 173, 1)" stroke-width="1.5"></path>
        <path d="M1106.63 536.97L1106.63 536.97" stroke="rgba(54, 82, 173, 1)" stroke-width="1.5"></path>
        <path d="M1106.63 536.97L1142.73 657.48" stroke="rgba(54, 82, 173, 1)" stroke-width="1.5"></path>
        <path d="M1142.73 657.48L1142.73 657.48" stroke="rgba(54, 82, 173, 1)" stroke-width="1.5"></path>
        <path d="M1142.73 657.48L1238.52 691.21" stroke="rgba(54, 82, 173, 1)" stroke-width="1.5"></path>
        <path d="M1142.73 657.48L1266.16 550.59" stroke="rgba(54, 82, 173, 1)" stroke-width="1.5"></path>
        <path d="M1142.73 657.48L1426.12 710.09" stroke="rgba(54, 82, 173, 1)" stroke-width="1.5"></path>
        <path d="M1244.83 -43.5L1244.83 -43.5" stroke="rgba(54, 82, 173, 1)" stroke-width="1.5"></path>
        <path d="M1244.83 -43.5L1302.65 82.93" stroke="rgba(54, 82, 173, 1)" stroke-width="1.5"></path>
        <path d="M1302.65 82.93L1302.65 82.93" stroke="rgba(54, 82, 173, 1)" stroke-width="1.5"></path>
        <path d="M1302.65 82.93L1412.57 79.91" stroke="rgba(54, 82, 173, 1)" stroke-width="1.5"></path>
        <path d="M1302.65 82.93L1243.63 197.64" stroke="rgba(54, 82, 173, 1)" stroke-width="1.5"></path>
        <path d="M1302.65 82.93L1400.9 191.44" stroke="rgba(54, 82, 173, 1)" stroke-width="1.5"></path>
        <path d="M1302.65 82.93L1116.19 111.92" stroke="rgba(54, 82, 173, 1)" stroke-width="1.5"></path>
        <path d="M1243.63 197.64L1243.63 197.64" stroke="rgba(54, 82, 173, 1)" stroke-width="1.5"></path>
        <path d="M1243.63 197.64L1400.9 191.44" stroke="rgba(54, 82, 173, 1)" stroke-width="1.5"></path>
        <path d="M1287.22 407.97L1287.22 407.97" stroke="rgba(54, 82, 173, 1)" stroke-width="1.5"></path>
        <path d="M1287.22 407.97L1266.16 550.59" stroke="rgba(54, 82, 173, 1)" stroke-width="1.5"></path>
        <path d="M1287.22 407.97L1438.11 366.06" stroke="rgba(54, 82, 173, 1)" stroke-width="1.5"></path>
        <path d="M1287.22 407.97L1448.49 510.31" stroke="rgba(54, 82, 173, 1)" stroke-width="1.5"></path>
        <path d="M1287.22 407.97L1243.63 197.64" stroke="rgba(54, 82, 173, 1)" stroke-width="1.5"></path>
        <path d="M1266.16 550.59L1266.16 550.59" stroke="rgba(54, 82, 173, 1)" stroke-width="1.5"></path>
        <path d="M1266.16 550.59L1238.52 691.21" stroke="rgba(54, 82, 173, 1)" stroke-width="1.5"></path>
        <path d="M1238.52 691.21L1238.52 691.21" stroke="rgba(54, 82, 173, 1)" stroke-width="1.5"></path>
        <path d="M1410.35 -81.19L1410.35 -81.19" stroke="rgba(54, 82, 173, 1)" stroke-width="1.5"></path>
        <path d="M1410.35 -81.19L1412.57 79.91" stroke="rgba(54, 82, 173, 1)" stroke-width="1.5"></path>
        <path d="M1410.35 -81.19L1244.83 -43.5" stroke="rgba(54, 82, 173, 1)" stroke-width="1.5"></path>
        <path d="M1410.35 -81.19L1582.54 -89.25" stroke="rgba(54, 82, 173, 1)" stroke-width="1.5"></path>
        <path d="M1412.57 79.91L1412.57 79.91" stroke="rgba(54, 82, 173, 1)" stroke-width="1.5"></path>
        <path d="M1412.57 79.91L1400.9 191.44" stroke="rgba(54, 82, 173, 1)" stroke-width="1.5"></path>
        <path d="M1412.57 79.91L1563.91 53.57" stroke="rgba(54, 82, 173, 1)" stroke-width="1.5"></path>
        <path d="M1400.9 191.44L1400.9 191.44" stroke="rgba(54, 82, 173, 1)" stroke-width="1.5"></path>
        <path d="M1400.9 191.44L1556.2 225.74" stroke="rgba(54, 82, 173, 1)" stroke-width="1.5"></path>
        <path d="M1438.11 366.06L1438.11 366.06" stroke="rgba(54, 82, 173, 1)" stroke-width="1.5"></path>
        <path d="M1438.11 366.06L1448.49 510.31" stroke="rgba(54, 82, 173, 1)" stroke-width="1.5"></path>
        <path d="M1438.11 366.06L1400.9 191.44" stroke="rgba(54, 82, 173, 1)" stroke-width="1.5"></path>
        <path d="M1438.11 366.06L1556.2 225.74" stroke="rgba(54, 82, 173, 1)" stroke-width="1.5"></path>
        <path d="M1448.49 510.31L1448.49 510.31" stroke="rgba(54, 82, 173, 1)" stroke-width="1.5"></path>
        <path d="M1448.49 510.31L1586.49 511.06" stroke="rgba(54, 82, 173, 1)" stroke-width="1.5"></path>
        <path d="M1426.12 710.09L1426.12 710.09" stroke="rgba(54, 82, 173, 1)" stroke-width="1.5"></path>
        <path d="M1426.12 710.09L1598.33 670.37" stroke="rgba(54, 82, 173, 1)" stroke-width="1.5"></path>
        <path d="M1426.12 710.09L1238.52 691.21" stroke="rgba(54, 82, 173, 1)" stroke-width="1.5"></path>
        <path d="M1426.12 710.09L1448.49 510.31" stroke="rgba(54, 82, 173, 1)" stroke-width="1.5"></path>
        <path d="M1582.54 -89.25L1582.54 -89.25" stroke="rgba(54, 82, 173, 1)" stroke-width="1.5"></path>
        <path d="M1582.54 -89.25L1563.91 53.57" stroke="rgba(54, 82, 173, 1)" stroke-width="1.5"></path>
        <path d="M1563.91 53.57L1563.91 53.57" stroke="rgba(54, 82, 173, 1)" stroke-width="1.5"></path>
        <path d="M1563.91 53.57L1556.2 225.74" stroke="rgba(54, 82, 173, 1)" stroke-width="1.5"></path>
        <path d="M1563.91 53.57L1410.35 -81.19" stroke="rgba(54, 82, 173, 1)" stroke-width="1.5"></path>
        <path d="M1563.91 53.57L1400.9 191.44" stroke="rgba(54, 82, 173, 1)" stroke-width="1.5"></path>
        <path d="M1563.91 53.57L1302.65 82.93" stroke="rgba(54, 82, 173, 1)" stroke-width="1.5"></path>
        <path d="M1556.2 225.74L1556.2 225.74" stroke="rgba(54, 82, 173, 1)" stroke-width="1.5"></path>
        <path d="M1556.2 225.74L1412.57 79.91" stroke="rgba(54, 82, 173, 1)" stroke-width="1.5"></path>
        <path d="M1556.2 225.74L1586.49 511.06" stroke="rgba(54, 82, 173, 1)" stroke-width="1.5"></path>
        <path d="M1556.2 225.74L1302.65 82.93" stroke="rgba(54, 82, 173, 1)" stroke-width="1.5"></path>
        <path d="M1586.49 511.06L1586.49 511.06" stroke="rgba(54, 82, 173, 1)" stroke-width="1.5"></path>
        <path d="M1586.49 511.06L1598.33 670.37" stroke="rgba(54, 82, 173, 1)" stroke-width="1.5"></path>
        <path d="M1586.49 511.06L1438.11 366.06" stroke="rgba(54, 82, 173, 1)" stroke-width="1.5"></path>
        <path d="M1586.49 511.06L1426.12 710.09" stroke="rgba(54, 82, 173, 1)" stroke-width="1.5"></path>
        <path d="M1598.33 670.37L1598.33 670.37" stroke="rgba(54, 82, 173, 1)" stroke-width="1.5"></path>
        <path d="M1598.33 670.37L1448.49 510.31" stroke="rgba(54, 82, 173, 1)" stroke-width="1.5"></path>
        <circle r="5" cx="-86.94" cy="392.79" fill="rgba(54, 82, 173, 1)"></circle>
        <circle r="5" cx="-90.71" cy="527.72" fill="rgba(54, 82, 173, 1)"></circle>
        <circle r="5" cx="-40.02" cy="699.65" fill="rgba(54, 82, 173, 1)"></circle>
        <circle r="5" cx="111.09" cy="378.91" fill="rgba(54, 82, 173, 1)"></circle>
        <circle r="5" cx="39.45" cy="527.97" fill="rgba(54, 82, 173, 1)"></circle>
        <circle r="5" cx="77.09" cy="693.6" fill="rgba(54, 82, 173, 1)"></circle>
        <circle r="5" cx="241.99" cy="373.46" fill="rgba(54, 82, 173, 1)"></circle>
        <circle r="5" cx="238.67" cy="498.04" fill="rgba(54, 82, 173, 1)"></circle>
        <circle r="5" cx="220.47" cy="670.26" fill="rgba(54, 82, 173, 1)"></circle>
        <circle r="5" cx="367.99" cy="364.24" fill="rgba(54, 82, 173, 1)"></circle>
        <circle r="5" cx="410.95" cy="535.98" fill="rgba(54, 82, 173, 1)"></circle>
        <circle r="5" cx="345.45" cy="691.65" fill="rgba(54, 82, 173, 1)"></circle>
        <circle r="5" cx="530.48" cy="356.62" fill="rgba(54, 82, 173, 1)"></circle>
        <circle r="5" cx="513.95" cy="511.27" fill="rgba(54, 82, 173, 1)"></circle>
        <circle r="5" cx="506.34" cy="697.05" fill="rgba(54, 82, 173, 1)"></circle>
        <circle r="5" cx="695.52" cy="252.24" fill="rgba(54, 82, 173, 1)"></circle>
        <circle r="5" cx="689.26" cy="490.76" fill="rgba(54, 82, 173, 1)"></circle>
        <circle r="5" cx="699.37" cy="651.62" fill="rgba(54, 82, 173, 1)"></circle>
        <circle r="5" cx="823.86" cy="232.2" fill="rgba(54, 82, 173, 1)"></circle>
        <circle r="5" cx="801.42" cy="401.39" fill="rgba(54, 82, 173, 1)"></circle>
        <circle r="5" cx="827.32" cy="679.32" fill="rgba(54, 82, 173, 1)"></circle>
        <circle r="5" cx="976.6" cy="-76.6" fill="rgba(54, 82, 173, 1)"></circle>
        <circle r="5" cx="976.56" cy="50.22" fill="rgba(54, 82, 173, 1)"></circle>
        <circle r="5" cx="1005.19" cy="197.34" fill="rgba(54, 82, 173, 1)"></circle>
        <circle r="5" cx="954.35" cy="398.01" fill="rgba(54, 82, 173, 1)"></circle>
        <circle r="5" cx="976.39" cy="549.46" fill="rgba(54, 82, 173, 1)"></circle>
        <circle r="5" cx="955.36" cy="696.72" fill="rgba(54, 82, 173, 1)"></circle>
        <circle r="5" cx="1116.19" cy="111.92" fill="rgba(54, 82, 173, 1)"></circle>
        <circle r="5" cx="1107.01" cy="233.42" fill="rgba(54, 82, 173, 1)"></circle>
        <circle r="5" cx="1109.74" cy="354.93" fill="rgba(54, 82, 173, 1)"></circle>
        <circle r="5" cx="1106.63" cy="536.97" fill="rgba(54, 82, 173, 1)"></circle>
        <circle r="5" cx="1142.73" cy="657.48" fill="rgba(54, 82, 173, 1)"></circle>
        <circle r="5" cx="1244.83" cy="-43.5" fill="rgba(54, 82, 173, 1)"></circle>
        <circle r="5" cx="1302.65" cy="82.93" fill="rgba(54, 82, 173, 1)"></circle>
        <circle r="5" cx="1243.63" cy="197.64" fill="rgba(54, 82, 173, 1)"></circle>
        <circle r="5" cx="1287.22" cy="407.97" fill="rgba(54, 82, 173, 1)"></circle>
        <circle r="5" cx="1266.16" cy="550.59" fill="rgba(54, 82, 173, 1)"></circle>
        <circle r="5" cx="1238.52" cy="691.21" fill="rgba(54, 82, 173, 1)"></circle>
        <circle r="5" cx="1410.35" cy="-81.19" fill="rgba(54, 82, 173, 1)"></circle>
        <circle r="5" cx="1412.57" cy="79.91" fill="rgba(54, 82, 173, 1)"></circle>
        <circle r="5" cx="1400.9" cy="191.44" fill="rgba(54, 82, 173, 1)"></circle>
        <circle r="5" cx="1438.11" cy="366.06" fill="rgba(54, 82, 173, 1)"></circle>
        <circle r="5" cx="1448.49" cy="510.31" fill="rgba(54, 82, 173, 1)"></circle>
        <circle r="5" cx="1426.12" cy="710.09" fill="rgba(54, 82, 173, 1)"></circle>
        <circle r="5" cx="1582.54" cy="-89.25" fill="rgba(54, 82, 173, 1)"></circle>
        <circle r="5" cx="1563.91" cy="53.57" fill="rgba(54, 82, 173, 1)"></circle>
        <circle r="5" cx="1556.2" cy="225.74" fill="rgba(54, 82, 173, 1)"></circle>
        <circle r="5" cx="1586.49" cy="511.06" fill="rgba(54, 82, 173, 1)"></circle>
        <circle r="5" cx="1598.33" cy="670.37" fill="rgba(54, 82, 173, 1)"></circle>
        <path d="M39.87 683.89L39.87 683.89" stroke="hsl(228.5, 77.2%, 51.5%)" stroke-width="1.5"></path>
        <path d="M39.87 683.89L-56.7 698.9" stroke="hsl(228.5, 77.2%, 51.5%)" stroke-width="1.5"></path>
        <path d="M39.87 683.89L88.45 526.2" stroke="hsl(228.5, 77.2%, 51.5%)" stroke-width="1.5"></path>
        <path d="M371.92 703.38L371.92 703.38" stroke="hsl(228.5, 77.2%, 51.5%)" stroke-width="1.5"></path>
        <path d="M371.92 703.38L250.24 700.69" stroke="hsl(228.5, 77.2%, 51.5%)" stroke-width="1.5"></path>
        <path d="M371.92 703.38L520.58 553.8" stroke="hsl(228.5, 77.2%, 51.5%)" stroke-width="1.5"></path>
        <path d="M371.92 703.38L355.13 490.41" stroke="hsl(228.5, 77.2%, 51.5%)" stroke-width="1.5"></path>
        <path d="M371.92 703.38L196.41 537.27" stroke="hsl(228.5, 77.2%, 51.5%)" stroke-width="1.5"></path>
        <path d="M371.92 703.38L669.15 700.96" stroke="hsl(228.5, 77.2%, 51.5%)" stroke-width="1.5"></path>
        <path d="M791.98 683.03L791.98 683.03" stroke="hsl(228.5, 77.2%, 51.5%)" stroke-width="1.5"></path>
        <path d="M791.98 683.03L669.15 700.96" stroke="hsl(228.5, 77.2%, 51.5%)" stroke-width="1.5"></path>
        <path d="M791.98 683.03L942.83 701.35" stroke="hsl(228.5, 77.2%, 51.5%)" stroke-width="1.5"></path>
        <path d="M986.68 395.67L986.68 395.67" stroke="hsl(228.5, 77.2%, 51.5%)" stroke-width="1.5"></path>
        <path d="M986.68 395.67L957.61 520.08" stroke="hsl(228.5, 77.2%, 51.5%)" stroke-width="1.5"></path>
        <path d="M986.68 395.67L1115.38 339.19" stroke="hsl(228.5, 77.2%, 51.5%)" stroke-width="1.5"></path>
        <path d="M986.68 395.67L818.7 502.97" stroke="hsl(228.5, 77.2%, 51.5%)" stroke-width="1.5"></path>
        <path d="M986.68 395.67L1246.4 370.83" stroke="hsl(228.5, 77.2%, 51.5%)" stroke-width="1.5"></path>
        <path d="M986.68 395.67L1238.25 542.79" stroke="hsl(228.5, 77.2%, 51.5%)" stroke-width="1.5"></path>
        <path d="M1269.08 -62.03L1269.08 -62.03" stroke="hsl(228.5, 77.2%, 51.5%)" stroke-width="1.5"></path>
        <path d="M1269.08 -62.03L1458.04 -38.31" stroke="hsl(228.5, 77.2%, 51.5%)" stroke-width="1.5"></path>
        <path d="M1269.08 -62.03L1441.75 64.21" stroke="hsl(228.5, 77.2%, 51.5%)" stroke-width="1.5"></path>
        <path d="M1246.4 370.83L1246.4 370.83" stroke="hsl(228.5, 77.2%, 51.5%)" stroke-width="1.5"></path>
        <path d="M1246.4 370.83L1300.13 259.24" stroke="hsl(228.5, 77.2%, 51.5%)" stroke-width="1.5"></path>
        <path d="M1246.4 370.83L1115.38 339.19" stroke="hsl(228.5, 77.2%, 51.5%)" stroke-width="1.5"></path>
        <path d="M1246.4 370.83L1238.25 542.79" stroke="hsl(228.5, 77.2%, 51.5%)" stroke-width="1.5"></path>
        <path d="M1246.4 370.83L1395.65 242.19" stroke="hsl(228.5, 77.2%, 51.5%)" stroke-width="1.5"></path>
        <path d="M1246.4 370.83L1439.78 533.4" stroke="hsl(228.5, 77.2%, 51.5%)" stroke-width="1.5"></path>
        <path d="M1238.25 542.79L1238.25 542.79" stroke="hsl(228.5, 77.2%, 51.5%)" stroke-width="1.5"></path>
        <path d="M1238.25 542.79L1142.21 682.49" stroke="hsl(228.5, 77.2%, 51.5%)" stroke-width="1.5"></path>
        <path d="M1238.25 542.79L1259.57 711.15" stroke="hsl(228.5, 77.2%, 51.5%)" stroke-width="1.5"></path>
        <path d="M1441.75 64.21L1441.75 64.21" stroke="hsl(228.5, 77.2%, 51.5%)" stroke-width="1.5"></path>
        <path d="M1441.75 64.21L1542.1 87.12" stroke="hsl(228.5, 77.2%, 51.5%)" stroke-width="1.5"></path>
        <path d="M1441.75 64.21L1458.04 -38.31" stroke="hsl(228.5, 77.2%, 51.5%)" stroke-width="1.5"></path>
        <path d="M1441.75 64.21L1562.92 -57.34" stroke="hsl(228.5, 77.2%, 51.5%)" stroke-width="1.5"></path>
        <path d="M1542.1 87.12L1542.1 87.12" stroke="hsl(228.5, 77.2%, 51.5%)" stroke-width="1.5"></path>
        <path d="M1542.1 87.12L1593.42 202.29" stroke="hsl(228.5, 77.2%, 51.5%)" stroke-width="1.5"></path>
        <path d="M1542.1 87.12L1562.92 -57.34" stroke="hsl(228.5, 77.2%, 51.5%)" stroke-width="1.5"></path>
        <path d="M1542.1 87.12L1458.04 -38.31" stroke="hsl(228.5, 77.2%, 51.5%)" stroke-width="1.5"></path>
        <path d="M1542.1 87.12L1395.65 242.19" stroke="hsl(228.5, 77.2%, 51.5%)" stroke-width="1.5"></path>
        <path d="M1542.1 87.12L1544.47 352.42" stroke="hsl(228.5, 77.2%, 51.5%)" stroke-width="1.5"></path>
        <path d="M-107.84 518.53L-107.84 518.53" stroke="hsl(228.5, 77.2%, 51.5%)" stroke-width="1.5"></path>
        <path d="M-107.84 518.53L-56.7 698.9" stroke="hsl(228.5, 77.2%, 51.5%)" stroke-width="1.5"></path>
        <path d="M-107.84 518.53L88.45 526.2" stroke="hsl(228.5, 77.2%, 51.5%)" stroke-width="1.5"></path>
        <path d="M-107.84 518.53L39.87 683.89" stroke="hsl(228.5, 77.2%, 51.5%)" stroke-width="1.5"></path>
        <path d="M-56.7 698.9L-56.7 698.9" stroke="hsl(228.5, 77.2%, 51.5%)" stroke-width="1.5"></path>
        <path d="M-56.7 698.9L88.45 526.2" stroke="hsl(228.5, 77.2%, 51.5%)" stroke-width="1.5"></path>
        <path d="M-56.7 698.9L196.41 537.27" stroke="hsl(228.5, 77.2%, 51.5%)" stroke-width="1.5"></path>
        <path d="M-56.7 698.9L250.24 700.69" stroke="hsl(228.5, 77.2%, 51.5%)" stroke-width="1.5"></path>
        <path d="M-56.7 698.9L371.92 703.38" stroke="hsl(228.5, 77.2%, 51.5%)" stroke-width="1.5"></path>
        <path d="M88.45 526.2L88.45 526.2" stroke="hsl(228.5, 77.2%, 51.5%)" stroke-width="1.5"></path>
        <path d="M88.45 526.2L196.41 537.27" stroke="hsl(228.5, 77.2%, 51.5%)" stroke-width="1.5"></path>
        <path d="M88.45 526.2L250.24 700.69" stroke="hsl(228.5, 77.2%, 51.5%)" stroke-width="1.5"></path>
        <path d="M88.45 526.2L355.13 490.41" stroke="hsl(228.5, 77.2%, 51.5%)" stroke-width="1.5"></path>
        <path d="M196.41 537.27L196.41 537.27" stroke="hsl(228.5, 77.2%, 51.5%)" stroke-width="1.5"></path>
        <path d="M196.41 537.27L355.13 490.41" stroke="hsl(228.5, 77.2%, 51.5%)" stroke-width="1.5"></path>
        <path d="M196.41 537.27L250.24 700.69" stroke="hsl(228.5, 77.2%, 51.5%)" stroke-width="1.5"></path>
        <path d="M250.24 700.69L250.24 700.69" stroke="hsl(228.5, 77.2%, 51.5%)" stroke-width="1.5"></path>
        <path d="M355.13 490.41L355.13 490.41" stroke="hsl(228.5, 77.2%, 51.5%)" stroke-width="1.5"></path>
        <path d="M355.13 490.41L520.58 553.8" stroke="hsl(228.5, 77.2%, 51.5%)" stroke-width="1.5"></path>
        <path d="M520.58 553.8L520.58 553.8" stroke="hsl(228.5, 77.2%, 51.5%)" stroke-width="1.5"></path>
        <path d="M520.58 553.8L671.66 536.59" stroke="hsl(228.5, 77.2%, 51.5%)" stroke-width="1.5"></path>
        <path d="M520.58 553.8L669.15 700.96" stroke="hsl(228.5, 77.2%, 51.5%)" stroke-width="1.5"></path>
        <path d="M677.41 366.59L677.41 366.59" stroke="hsl(228.5, 77.2%, 51.5%)" stroke-width="1.5"></path>
        <path d="M677.41 366.59L671.66 536.59" stroke="hsl(228.5, 77.2%, 51.5%)" stroke-width="1.5"></path>
        <path d="M677.41 366.59L818.7 502.97" stroke="hsl(228.5, 77.2%, 51.5%)" stroke-width="1.5"></path>
        <path d="M677.41 366.59L520.58 553.8" stroke="hsl(228.5, 77.2%, 51.5%)" stroke-width="1.5"></path>
        <path d="M671.66 536.59L671.66 536.59" stroke="hsl(228.5, 77.2%, 51.5%)" stroke-width="1.5"></path>
        <path d="M671.66 536.59L818.7 502.97" stroke="hsl(228.5, 77.2%, 51.5%)" stroke-width="1.5"></path>
        <path d="M671.66 536.59L669.15 700.96" stroke="hsl(228.5, 77.2%, 51.5%)" stroke-width="1.5"></path>
        <path d="M671.66 536.59L791.98 683.03" stroke="hsl(228.5, 77.2%, 51.5%)" stroke-width="1.5"></path>
        <path d="M671.66 536.59L957.61 520.08" stroke="hsl(228.5, 77.2%, 51.5%)" stroke-width="1.5"></path>
        <path d="M669.15 700.96L669.15 700.96" stroke="hsl(228.5, 77.2%, 51.5%)" stroke-width="1.5"></path>
        <path d="M818.7 502.97L818.7 502.97" stroke="hsl(228.5, 77.2%, 51.5%)" stroke-width="1.5"></path>
        <path d="M818.7 502.97L957.61 520.08" stroke="hsl(228.5, 77.2%, 51.5%)" stroke-width="1.5"></path>
        <path d="M818.7 502.97L791.98 683.03" stroke="hsl(228.5, 77.2%, 51.5%)" stroke-width="1.5"></path>
        <path d="M957.61 520.08L957.61 520.08" stroke="hsl(228.5, 77.2%, 51.5%)" stroke-width="1.5"></path>
        <path d="M957.61 520.08L942.83 701.35" stroke="hsl(228.5, 77.2%, 51.5%)" stroke-width="1.5"></path>
        <path d="M957.61 520.08L791.98 683.03" stroke="hsl(228.5, 77.2%, 51.5%)" stroke-width="1.5"></path>
        <path d="M957.61 520.08L1115.38 339.19" stroke="hsl(228.5, 77.2%, 51.5%)" stroke-width="1.5"></path>
        <path d="M942.83 701.35L942.83 701.35" stroke="hsl(228.5, 77.2%, 51.5%)" stroke-width="1.5"></path>
        <path d="M942.83 701.35L1142.21 682.49" stroke="hsl(228.5, 77.2%, 51.5%)" stroke-width="1.5"></path>
        <path d="M942.83 701.35L818.7 502.97" stroke="hsl(228.5, 77.2%, 51.5%)" stroke-width="1.5"></path>
        <path d="M1115.38 339.19L1115.38 339.19" stroke="hsl(228.5, 77.2%, 51.5%)" stroke-width="1.5"></path>
        <path d="M1115.38 339.19L1300.13 259.24" stroke="hsl(228.5, 77.2%, 51.5%)" stroke-width="1.5"></path>
        <path d="M1115.38 339.19L1238.25 542.79" stroke="hsl(228.5, 77.2%, 51.5%)" stroke-width="1.5"></path>
        <path d="M1115.38 339.19L1395.65 242.19" stroke="hsl(228.5, 77.2%, 51.5%)" stroke-width="1.5"></path>
        <path d="M1142.21 682.49L1142.21 682.49" stroke="hsl(228.5, 77.2%, 51.5%)" stroke-width="1.5"></path>
        <path d="M1142.21 682.49L1259.57 711.15" stroke="hsl(228.5, 77.2%, 51.5%)" stroke-width="1.5"></path>
        <path d="M1142.21 682.49L957.61 520.08" stroke="hsl(228.5, 77.2%, 51.5%)" stroke-width="1.5"></path>
        <path d="M1142.21 682.49L1397.14 665.96" stroke="hsl(228.5, 77.2%, 51.5%)" stroke-width="1.5"></path>
        <path d="M1300.13 259.24L1300.13 259.24" stroke="hsl(228.5, 77.2%, 51.5%)" stroke-width="1.5"></path>
        <path d="M1300.13 259.24L1395.65 242.19" stroke="hsl(228.5, 77.2%, 51.5%)" stroke-width="1.5"></path>
        <path d="M1259.57 711.15L1259.57 711.15" stroke="hsl(228.5, 77.2%, 51.5%)" stroke-width="1.5"></path>
        <path d="M1259.57 711.15L1397.14 665.96" stroke="hsl(228.5, 77.2%, 51.5%)" stroke-width="1.5"></path>
        <path d="M1458.04 -38.31L1458.04 -38.31" stroke="hsl(228.5, 77.2%, 51.5%)" stroke-width="1.5"></path>
        <path d="M1458.04 -38.31L1562.92 -57.34" stroke="hsl(228.5, 77.2%, 51.5%)" stroke-width="1.5"></path>
        <path d="M1458.04 -38.31L1593.42 202.29" stroke="hsl(228.5, 77.2%, 51.5%)" stroke-width="1.5"></path>
        <path d="M1458.04 -38.31L1395.65 242.19" stroke="hsl(228.5, 77.2%, 51.5%)" stroke-width="1.5"></path>
        <path d="M1395.65 242.19L1395.65 242.19" stroke="hsl(228.5, 77.2%, 51.5%)" stroke-width="1.5"></path>
        <path d="M1395.65 242.19L1441.75 64.21" stroke="hsl(228.5, 77.2%, 51.5%)" stroke-width="1.5"></path>
        <path d="M1439.78 533.4L1439.78 533.4" stroke="hsl(228.5, 77.2%, 51.5%)" stroke-width="1.5"></path>
        <path d="M1439.78 533.4L1397.14 665.96" stroke="hsl(228.5, 77.2%, 51.5%)" stroke-width="1.5"></path>
        <path d="M1439.78 533.4L1589.17 490.04" stroke="hsl(228.5, 77.2%, 51.5%)" stroke-width="1.5"></path>
        <path d="M1439.78 533.4L1590.24 654.25" stroke="hsl(228.5, 77.2%, 51.5%)" stroke-width="1.5"></path>
        <path d="M1439.78 533.4L1238.25 542.79" stroke="hsl(228.5, 77.2%, 51.5%)" stroke-width="1.5"></path>
        <path d="M1439.78 533.4L1544.47 352.42" stroke="hsl(228.5, 77.2%, 51.5%)" stroke-width="1.5"></path>
        <path d="M1397.14 665.96L1397.14 665.96" stroke="hsl(228.5, 77.2%, 51.5%)" stroke-width="1.5"></path>
        <path d="M1397.14 665.96L1590.24 654.25" stroke="hsl(228.5, 77.2%, 51.5%)" stroke-width="1.5"></path>
        <path d="M1397.14 665.96L1238.25 542.79" stroke="hsl(228.5, 77.2%, 51.5%)" stroke-width="1.5"></path>
        <path d="M1562.92 -57.34L1562.92 -57.34" stroke="hsl(228.5, 77.2%, 51.5%)" stroke-width="1.5"></path>
        <path d="M1562.92 -57.34L1593.42 202.29" stroke="hsl(228.5, 77.2%, 51.5%)" stroke-width="1.5"></path>
        <path d="M1562.92 -57.34L1269.08 -62.03" stroke="hsl(228.5, 77.2%, 51.5%)" stroke-width="1.5"></path>
        <path d="M1562.92 -57.34L1395.65 242.19" stroke="hsl(228.5, 77.2%, 51.5%)" stroke-width="1.5"></path>
        <path d="M1593.42 202.29L1593.42 202.29" stroke="hsl(228.5, 77.2%, 51.5%)" stroke-width="1.5"></path>
        <path d="M1593.42 202.29L1544.47 352.42" stroke="hsl(228.5, 77.2%, 51.5%)" stroke-width="1.5"></path>
        <path d="M1544.47 352.42L1544.47 352.42" stroke="hsl(228.5, 77.2%, 51.5%)" stroke-width="1.5"></path>
        <path d="M1544.47 352.42L1589.17 490.04" stroke="hsl(228.5, 77.2%, 51.5%)" stroke-width="1.5"></path>
        <path d="M1544.47 352.42L1395.65 242.19" stroke="hsl(228.5, 77.2%, 51.5%)" stroke-width="1.5"></path>
        <path d="M1544.47 352.42L1300.13 259.24" stroke="hsl(228.5, 77.2%, 51.5%)" stroke-width="1.5"></path>
        <path d="M1589.17 490.04L1589.17 490.04" stroke="hsl(228.5, 77.2%, 51.5%)" stroke-width="1.5"></path>
        <path d="M1589.17 490.04L1590.24 654.25" stroke="hsl(228.5, 77.2%, 51.5%)" stroke-width="1.5"></path>
        <path d="M1589.17 490.04L1397.14 665.96" stroke="hsl(228.5, 77.2%, 51.5%)" stroke-width="1.5"></path>
        <path d="M1589.17 490.04L1593.42 202.29" stroke="hsl(228.5, 77.2%, 51.5%)" stroke-width="1.5"></path>
        <path d="M1590.24 654.25L1590.24 654.25" stroke="hsl(228.5, 77.2%, 51.5%)" stroke-width="1.5"></path>
        <path d="M1590.24 654.25L1544.47 352.42" stroke="hsl(228.5, 77.2%, 51.5%)" stroke-width="1.5"></path>
        <path d="M1590.24 654.25L1259.57 711.15" stroke="hsl(228.5, 77.2%, 51.5%)" stroke-width="1.5"></path>
        <path d="M1590.24 654.25L1238.25 542.79" stroke="hsl(228.5, 77.2%, 51.5%)" stroke-width="1.5"></path>
        <circle r="25" cx="39.87" cy="683.89" fill="url(&quot;#SvgjsRadialGradient1015&quot;)"></circle>
        <circle r="25" cx="371.92" cy="703.38" fill="url(&quot;#SvgjsRadialGradient1015&quot;)"></circle>
        <circle r="25" cx="791.98" cy="683.03" fill="url(&quot;#SvgjsRadialGradient1015&quot;)"></circle>
        <circle r="25" cx="986.68" cy="395.67" fill="url(&quot;#SvgjsRadialGradient1015&quot;)"></circle>
        <circle r="25" cx="1269.08" cy="-62.03" fill="url(&quot;#SvgjsRadialGradient1015&quot;)"></circle>
        <circle r="25" cx="1246.4" cy="370.83" fill="url(&quot;#SvgjsRadialGradient1015&quot;)"></circle>
        <circle r="25" cx="1238.25" cy="542.79" fill="url(&quot;#SvgjsRadialGradient1015&quot;)"></circle>
        <circle r="25" cx="1441.75" cy="64.21" fill="url(&quot;#SvgjsRadialGradient1015&quot;)"></circle>
        <circle r="25" cx="1542.1" cy="87.12" fill="url(&quot;#SvgjsRadialGradient1015&quot;)"></circle>
        <circle r="5" cx="-107.84" cy="518.53" fill="#8b9ad9"></circle>
        <circle r="5" cx="-56.7" cy="698.9" fill="#8b9ad9"></circle>
        <circle r="5" cx="88.45" cy="526.2" fill="#8b9ad9"></circle>
        <circle r="5" cx="196.41" cy="537.27" fill="#8b9ad9"></circle>
        <circle r="5" cx="250.24" cy="700.69" fill="#8b9ad9"></circle>
        <circle r="5" cx="355.13" cy="490.41" fill="#8b9ad9"></circle>
        <circle r="5" cx="520.58" cy="553.8" fill="#8b9ad9"></circle>
        <circle r="5" cx="677.41" cy="366.59" fill="#8b9ad9"></circle>
        <circle r="5" cx="671.66" cy="536.59" fill="#8b9ad9"></circle>
        <circle r="5" cx="669.15" cy="700.96" fill="#8b9ad9"></circle>
        <circle r="5" cx="818.7" cy="502.97" fill="#8b9ad9"></circle>
        <circle r="5" cx="957.61" cy="520.08" fill="#8b9ad9"></circle>
        <circle r="5" cx="942.83" cy="701.35" fill="#8b9ad9"></circle>
        <circle r="5" cx="1115.38" cy="339.19" fill="#8b9ad9"></circle>
        <circle r="5" cx="1142.21" cy="682.49" fill="#8b9ad9"></circle>
        <circle r="5" cx="1300.13" cy="259.24" fill="#8b9ad9"></circle>
        <circle r="5" cx="1259.57" cy="711.15" fill="#8b9ad9"></circle>
        <circle r="5" cx="1458.04" cy="-38.31" fill="#8b9ad9"></circle>
        <circle r="5" cx="1395.65" cy="242.19" fill="#8b9ad9"></circle>
        <circle r="5" cx="1439.78" cy="533.4" fill="#8b9ad9"></circle>
        <circle r="5" cx="1397.14" cy="665.96" fill="#8b9ad9"></circle>
        <circle r="5" cx="1562.92" cy="-57.34" fill="#8b9ad9"></circle>
        <circle r="5" cx="1593.42" cy="202.29" fill="#8b9ad9"></circle>
        <circle r="5" cx="1544.47" cy="352.42" fill="#8b9ad9"></circle>
        <circle r="5" cx="1589.17" cy="490.04" fill="#8b9ad9"></circle>
        <circle r="5" cx="1590.24" cy="654.25" fill="#8b9ad9"></circle>
    </g>
    <defs>
        <mask id="SvgjsMask1014">
            <rect width="1440" height="560" fill="#ffffff"></rect>
        </mask>
        <radialGradient id="SvgjsRadialGradient1015">
            <stop stop-color="#ffffff" offset="0.1"></stop>
            <stop stop-color="#1735b3" offset="0.2"></stop>
            <stop stop-color="rgba(23, 53, 179, 0)" offset="1"></stop>
        </radialGradient>
    </defs>
</svg>