<svg width="76" height="68" viewBox="0 0 76 68" fill="none" xmlns="http://www.w3.org/2000/svg">
<path d="M38.5001 42.5C39.5 43.5 39.5001 44 39.0001 45H49L52 22C50.8334 21.5 48.1056 21.1056 49 22C49.9999 23 49.9999 25 47.5 25C46.5 26.1667 46.0078 27.5116 47 29C47.9923 30.4884 47.4999 32 45.5 32C42.8334 33.1667 37.9354 35.4785 39.5 36C40.9999 36.5 40.9999 39 38.0001 39C36.4189 39 37.2254 41.2252 38.5001 42.5Z" fill="white"/>
<path d="M55.5001 38C54.5001 38.6667 51.8335 42.6667 51.0001 45H39.5001L48.0001 30L51.0001 21.5C45.6668 20 37.5 18 32.5001 16.5C30.5255 15.9076 23.9583 13.6471 26.0001 6.49999C27 3 30.5 0 35.0001 0.999985C40.8776 2.30603 48.5001 14 53.0001 15.5C56.7194 16.7398 58.7309 16.6133 61.5754 18.7906C62.9313 19.8284 63.9208 21.2573 64.7501 22.75L66 25C67.3128 27.9536 68.4834 31.535 66.5819 34.1487C65.7181 35.3362 64.3122 36.2898 62.0001 36.5C58.5001 36.8182 56.5001 37.3333 55.5001 38Z" fill="white"/>
<circle cx="57.5" cy="25.5" r="2" fill="black" stroke="black"/>
<path d="M45.7299 15.6049C45.9573 15.7828 46.1682 15.9503 46.3605 16.1057C46.1137 16.0246 45.8447 15.9335 45.5562 15.8335C44.0539 15.3126 42.061 14.5625 40.0356 13.773C38.0111 12.9839 35.959 12.1575 34.3397 11.4849C33.5298 11.1485 32.8299 10.8513 32.2965 10.6169C31.75 10.3767 31.4087 10.2155 31.2911 10.1461C30.3396 9.58506 30.0231 8.35892 30.5842 7.40745C31.1452 6.45598 32.3714 6.13949 33.3229 6.70055C33.8922 7.03629 37.5491 9.57674 41.0515 12.1153C42.797 13.3804 44.4918 14.636 45.7299 15.6049Z" fill="black" stroke="black"/>
<path d="M8 48C8 46.3431 9.34315 45 11 45H54C57.3137 45 60 47.6863 60 51H11C9.34314 51 8 49.6569 8 48Z" fill="white"/>
<path d="M15 41C15 39.8954 15.8954 39 17 39H42C43.1046 39 44 39.8954 44 41C44 42.1046 43.1046 43 42 43H17C15.8954 43 15 42.1046 15 41Z" fill="white"/>
<path d="M8 34C8 32.8954 8.89543 32 10 32H47C48.1046 32 49 32.8954 49 34C49 35.1046 48.1046 36 47 36H10C8.89543 36 8 35.1046 8 34Z" fill="white"/>
<path d="M14 27C14 25.8954 14.8954 25 16 25H53C54.1046 25 55 25.8954 55 27C55 28.1046 54.1046 29 53 29H16C14.8954 29 14 28.1046 14 27Z" fill="white"/>
<path d="M15 20C15 18.8954 15.8954 18 17 18H54C55.1046 18 56 18.8954 56 20C56 21.1046 55.1046 22 54 22H17C15.8954 22 15 21.1046 15 20Z" fill="white"/>
<path d="M8 41C8 39.8954 8.89543 39 10 39H12C13.1046 39 14 39.8954 14 41C14 42.1046 13.1046 43 12 43H10C8.89543 43 8 42.1046 8 41Z" fill="white"/>
<path d="M8 27C8 25.8954 8.89543 25 10 25C11.1046 25 12 25.8954 12 27C12 28.1046 11.1046 29 10 29C8.89543 29 8 28.1046 8 27Z" fill="white"/>
<path d="M8 20C8 18.8954 8.89543 18 10 18H12C13.1046 18 14 18.8954 14 20C14 21.1046 13.1046 22 12 22H10C8.89543 22 8 21.1046 8 20Z" fill="white"/>
<path d="M1.788 64.108C1.484 64.108 1.252 64.024 1.092 63.856C0.932 63.688 0.852 63.452 0.852 63.148V56.488C0.852 56.176 0.932 55.94 1.092 55.78C1.26 55.62 1.496 55.54 1.8 55.54H4.716C5.66 55.54 6.388 55.768 6.9 56.224C7.412 56.68 7.668 57.316 7.668 58.132C7.668 58.66 7.552 59.116 7.32 59.5C7.088 59.884 6.752 60.18 6.312 60.388C5.88 60.596 5.348 60.7 4.716 60.7L4.812 60.496H5.304C5.64 60.496 5.932 60.58 6.18 60.748C6.436 60.908 6.656 61.156 6.84 61.492L7.584 62.872C7.696 63.072 7.748 63.268 7.74 63.46C7.732 63.652 7.66 63.808 7.524 63.928C7.388 64.048 7.188 64.108 6.924 64.108C6.66 64.108 6.444 64.052 6.276 63.94C6.116 63.828 5.972 63.656 5.844 63.424L4.692 61.3C4.572 61.076 4.424 60.924 4.248 60.844C4.08 60.764 3.872 60.724 3.624 60.724H2.712V63.148C2.712 63.452 2.632 63.688 2.472 63.856C2.32 64.024 2.092 64.108 1.788 64.108ZM2.712 59.38H4.38C4.876 59.38 5.248 59.28 5.496 59.08C5.752 58.88 5.88 58.58 5.88 58.18C5.88 57.788 5.752 57.492 5.496 57.292C5.248 57.092 4.876 56.992 4.38 56.992H2.712V59.38ZM10.9614 64.132C10.5294 64.132 10.1414 64.048 9.79744 63.88C9.45344 63.712 9.18544 63.484 8.99344 63.196C8.80144 62.908 8.70544 62.584 8.70544 62.224C8.70544 61.792 8.81744 61.452 9.04144 61.204C9.26544 60.948 9.62944 60.768 10.1334 60.664C10.6374 60.552 11.3054 60.496 12.1374 60.496H12.7734V61.432H12.1494C11.7414 61.432 11.4094 61.456 11.1534 61.504C10.9054 61.544 10.7254 61.616 10.6134 61.72C10.5094 61.824 10.4574 61.968 10.4574 62.152C10.4574 62.376 10.5334 62.56 10.6854 62.704C10.8454 62.848 11.0734 62.92 11.3694 62.92C11.6014 62.92 11.8054 62.868 11.9814 62.764C12.1654 62.652 12.3094 62.504 12.4134 62.32C12.5174 62.128 12.5694 61.912 12.5694 61.672V60.292C12.5694 59.94 12.4894 59.692 12.3294 59.548C12.1694 59.396 11.8974 59.32 11.5134 59.32C11.2974 59.32 11.0614 59.348 10.8054 59.404C10.5574 59.452 10.2814 59.536 9.97744 59.656C9.80144 59.736 9.64544 59.756 9.50944 59.716C9.37344 59.668 9.26944 59.588 9.19744 59.476C9.12544 59.356 9.08944 59.228 9.08944 59.092C9.08944 58.948 9.12944 58.812 9.20944 58.684C9.28944 58.548 9.42144 58.448 9.60544 58.384C9.98144 58.232 10.3334 58.128 10.6614 58.072C10.9974 58.016 11.3054 57.988 11.5854 57.988C12.2014 57.988 12.7054 58.08 13.0974 58.264C13.4974 58.44 13.7974 58.716 13.9974 59.092C14.1974 59.46 14.2974 59.936 14.2974 60.52V63.184C14.2974 63.48 14.2254 63.708 14.0814 63.868C13.9374 64.028 13.7294 64.108 13.4574 64.108C13.1854 64.108 12.9734 64.028 12.8214 63.868C12.6774 63.708 12.6054 63.48 12.6054 63.184V62.74L12.6894 62.812C12.6414 63.084 12.5374 63.32 12.3774 63.52C12.2254 63.712 12.0294 63.864 11.7894 63.976C11.5494 64.08 11.2734 64.132 10.9614 64.132ZM16.5611 66.268C16.2651 66.268 16.0371 66.188 15.8771 66.028C15.7251 65.876 15.6491 65.648 15.6491 65.344V58.924C15.6491 58.628 15.7251 58.404 15.8771 58.252C16.0371 58.092 16.2571 58.012 16.5371 58.012C16.8331 58.012 17.0571 58.092 17.2091 58.252C17.3611 58.404 17.4371 58.628 17.4371 58.924V59.74L17.3051 59.272C17.4251 58.888 17.6651 58.58 18.0251 58.348C18.3931 58.108 18.8131 57.988 19.2851 57.988C19.7971 57.988 20.2451 58.112 20.6291 58.36C21.0211 58.608 21.3251 58.96 21.5411 59.416C21.7571 59.872 21.8651 60.416 21.8651 61.048C21.8651 61.68 21.7571 62.228 21.5411 62.692C21.3251 63.156 21.0251 63.512 20.6411 63.76C20.2571 64.008 19.8051 64.132 19.2851 64.132C18.8211 64.132 18.4091 64.02 18.0491 63.796C17.6891 63.564 17.4451 63.264 17.3171 62.896H17.4611V65.344C17.4611 65.648 17.3811 65.876 17.2211 66.028C17.0691 66.188 16.8491 66.268 16.5611 66.268ZM18.7451 62.776C19.0011 62.776 19.2251 62.712 19.4171 62.584C19.6171 62.456 19.7691 62.268 19.8731 62.02C19.9851 61.764 20.0411 61.44 20.0411 61.048C20.0411 60.464 19.9211 60.036 19.6811 59.764C19.4411 59.484 19.1291 59.344 18.7451 59.344C18.4891 59.344 18.2611 59.404 18.0611 59.524C17.8691 59.644 17.7171 59.832 17.6051 60.088C17.4931 60.336 17.4371 60.656 17.4371 61.048C17.4371 61.632 17.5571 62.068 17.7971 62.356C18.0371 62.636 18.3531 62.776 18.7451 62.776ZM23.8853 64.096C23.5893 64.096 23.3613 64.012 23.2013 63.844C23.0493 63.668 22.9733 63.424 22.9733 63.112V59.008C22.9733 58.688 23.0493 58.444 23.2013 58.276C23.3613 58.1 23.5893 58.012 23.8853 58.012C24.1733 58.012 24.3933 58.1 24.5453 58.276C24.7053 58.444 24.7853 58.688 24.7853 59.008V63.112C24.7853 63.424 24.7093 63.668 24.5573 63.844C24.4053 64.012 24.1813 64.096 23.8853 64.096ZM23.8853 57.028C23.5493 57.028 23.2893 56.952 23.1053 56.8C22.9293 56.64 22.8413 56.416 22.8413 56.128C22.8413 55.832 22.9293 55.608 23.1053 55.456C23.2893 55.296 23.5493 55.216 23.8853 55.216C24.2213 55.216 24.4773 55.296 24.6533 55.456C24.8293 55.608 24.9173 55.832 24.9173 56.128C24.9173 56.416 24.8293 56.64 24.6533 56.8C24.4773 56.952 24.2213 57.028 23.8853 57.028ZM28.4763 64.132C27.9643 64.132 27.5123 64.008 27.1203 63.76C26.7363 63.512 26.4363 63.156 26.2203 62.692C26.0043 62.228 25.8963 61.68 25.8963 61.048C25.8963 60.416 26.0043 59.872 26.2203 59.416C26.4363 58.96 26.7363 58.608 27.1203 58.36C27.5123 58.112 27.9643 57.988 28.4763 57.988C28.9403 57.988 29.3483 58.1 29.7003 58.324C30.0603 58.548 30.3043 58.84 30.4323 59.2H30.3003V56.356C30.3003 56.052 30.3763 55.824 30.5283 55.672C30.6803 55.512 30.9043 55.432 31.2003 55.432C31.4883 55.432 31.7123 55.512 31.8723 55.672C32.0323 55.824 32.1123 56.052 32.1123 56.356V63.184C32.1123 63.48 32.0323 63.708 31.8723 63.868C31.7203 64.028 31.5003 64.108 31.2123 64.108C30.9243 64.108 30.7003 64.028 30.5403 63.868C30.3883 63.708 30.3123 63.48 30.3123 63.184V62.368L30.4443 62.836C30.3323 63.228 30.0923 63.544 29.7243 63.784C29.3643 64.016 28.9483 64.132 28.4763 64.132ZM29.0163 62.776C29.2803 62.776 29.5083 62.712 29.7003 62.584C29.8923 62.456 30.0443 62.268 30.1563 62.02C30.2683 61.764 30.3243 61.44 30.3243 61.048C30.3243 60.464 30.2043 60.036 29.9643 59.764C29.7243 59.484 29.4083 59.344 29.0163 59.344C28.7603 59.344 28.5323 59.404 28.3323 59.524C28.1403 59.644 27.9883 59.832 27.8763 60.088C27.7723 60.336 27.7203 60.656 27.7203 61.048C27.7203 61.632 27.8403 62.068 28.0803 62.356C28.3203 62.636 28.6323 62.776 29.0163 62.776ZM36.3405 64.132C35.7085 64.132 35.1565 64.008 34.6845 63.76C34.2205 63.512 33.8605 63.156 33.6045 62.692C33.3485 62.228 33.2205 61.68 33.2205 61.048C33.2205 60.576 33.2925 60.152 33.4365 59.776C33.5805 59.4 33.7885 59.08 34.0605 58.816C34.3405 58.544 34.6725 58.34 35.0565 58.204C35.4405 58.06 35.8685 57.988 36.3405 57.988C36.9725 57.988 37.5205 58.112 37.9845 58.36C38.4565 58.608 38.8205 58.96 39.0765 59.416C39.3405 59.872 39.4725 60.416 39.4725 61.048C39.4725 61.528 39.3965 61.956 39.2445 62.332C39.1005 62.708 38.8925 63.032 38.6205 63.304C38.3485 63.576 38.0165 63.784 37.6245 63.928C37.2405 64.064 36.8125 64.132 36.3405 64.132ZM36.3405 62.776C36.6045 62.776 36.8325 62.712 37.0245 62.584C37.2165 62.456 37.3685 62.268 37.4805 62.02C37.5925 61.764 37.6485 61.44 37.6485 61.048C37.6485 60.464 37.5285 60.036 37.2885 59.764C37.0485 59.484 36.7325 59.344 36.3405 59.344C36.0845 59.344 35.8565 59.404 35.6565 59.524C35.4645 59.644 35.3125 59.832 35.2005 60.088C35.0965 60.336 35.0445 60.656 35.0445 61.048C35.0445 61.632 35.1645 62.068 35.4045 62.356C35.6445 62.636 35.9565 62.776 36.3405 62.776Z" fill="white"/>
<path d="M43.6829 64.108C43.3789 64.108 43.1469 64.024 42.9869 63.856C42.8269 63.688 42.7469 63.452 42.7469 63.148V57.076H40.6229C40.3749 57.076 40.1829 57.008 40.0469 56.872C39.9109 56.736 39.8429 56.548 39.8429 56.308C39.8429 56.06 39.9109 55.872 40.0469 55.744C40.1829 55.608 40.3749 55.54 40.6229 55.54H46.7309C46.9789 55.54 47.1709 55.608 47.3069 55.744C47.4429 55.872 47.5109 56.06 47.5109 56.308C47.5109 56.548 47.4429 56.736 47.3069 56.872C47.1709 57.008 46.9789 57.076 46.7309 57.076H44.6069V63.148C44.6069 63.452 44.5269 63.688 44.3669 63.856C44.2149 64.024 43.9869 64.108 43.6829 64.108ZM49.7135 64.096C49.4175 64.096 49.1895 64.012 49.0295 63.844C48.8775 63.668 48.8015 63.424 48.8015 63.112V59.008C48.8015 58.688 48.8775 58.444 49.0295 58.276C49.1895 58.1 49.4175 58.012 49.7135 58.012C50.0015 58.012 50.2215 58.1 50.3735 58.276C50.5335 58.444 50.6135 58.688 50.6135 59.008V63.112C50.6135 63.424 50.5375 63.668 50.3855 63.844C50.2335 64.012 50.0095 64.096 49.7135 64.096ZM49.7135 57.028C49.3775 57.028 49.1175 56.952 48.9335 56.8C48.7575 56.64 48.6695 56.416 48.6695 56.128C48.6695 55.832 48.7575 55.608 48.9335 55.456C49.1175 55.296 49.3775 55.216 49.7135 55.216C50.0495 55.216 50.3055 55.296 50.4815 55.456C50.6575 55.608 50.7455 55.832 50.7455 56.128C50.7455 56.416 50.6575 56.64 50.4815 56.8C50.3055 56.952 50.0495 57.028 49.7135 57.028ZM54.8804 64.132C54.2404 64.132 53.6804 64.008 53.2004 63.76C52.7284 63.504 52.3644 63.144 52.1084 62.68C51.8524 62.216 51.7244 61.668 51.7244 61.036C51.7244 60.564 51.7964 60.14 51.9404 59.764C52.0844 59.388 52.2924 59.068 52.5644 58.804C52.8444 58.54 53.1804 58.34 53.5724 58.204C53.9644 58.06 54.4004 57.988 54.8804 57.988C55.1284 57.988 55.3924 58.02 55.6724 58.084C55.9524 58.14 56.2284 58.24 56.5004 58.384C56.6604 58.456 56.7684 58.56 56.8244 58.696C56.8884 58.824 56.9124 58.96 56.8964 59.104C56.8804 59.24 56.8284 59.364 56.7404 59.476C56.6604 59.58 56.5564 59.652 56.4284 59.692C56.3004 59.724 56.1564 59.7 55.9964 59.62C55.8444 59.532 55.6844 59.468 55.5164 59.428C55.3564 59.388 55.2044 59.368 55.0604 59.368C54.8204 59.368 54.6084 59.408 54.4244 59.488C54.2404 59.56 54.0844 59.668 53.9564 59.812C53.8364 59.948 53.7404 60.12 53.6684 60.328C53.6044 60.536 53.5724 60.776 53.5724 61.048C53.5724 61.576 53.7004 61.992 53.9564 62.296C54.2204 62.592 54.5884 62.74 55.0604 62.74C55.2044 62.74 55.3564 62.724 55.5164 62.692C55.6764 62.652 55.8364 62.588 55.9964 62.5C56.1564 62.42 56.3004 62.4 56.4284 62.44C56.5564 62.48 56.6564 62.556 56.7284 62.668C56.8084 62.772 56.8524 62.896 56.8604 63.04C56.8764 63.176 56.8524 63.312 56.7884 63.448C56.7324 63.576 56.6284 63.676 56.4764 63.748C56.2044 63.884 55.9324 63.98 55.6604 64.036C55.3884 64.1 55.1284 64.132 54.8804 64.132ZM58.6549 64.108C58.3589 64.108 58.1309 64.028 57.9709 63.868C57.8189 63.708 57.7429 63.48 57.7429 63.184V56.356C57.7429 56.052 57.8189 55.824 57.9709 55.672C58.1309 55.512 58.3589 55.432 58.6549 55.432C58.9429 55.432 59.1629 55.512 59.3149 55.672C59.4749 55.824 59.5549 56.052 59.5549 56.356V60.544H59.5789L61.3189 58.612C61.4949 58.412 61.6549 58.264 61.7989 58.168C61.9509 58.064 62.1509 58.012 62.3989 58.012C62.6469 58.012 62.8349 58.076 62.9629 58.204C63.0989 58.332 63.1669 58.488 63.1669 58.672C63.1749 58.848 63.0989 59.028 62.9389 59.212L61.1029 61.264V60.58L63.1429 62.932C63.2949 63.116 63.3589 63.3 63.3349 63.484C63.3189 63.668 63.2389 63.82 63.0949 63.94C62.9509 64.052 62.7669 64.108 62.5429 64.108C62.2709 64.108 62.0509 64.056 61.8829 63.952C61.7229 63.848 61.5589 63.688 61.3909 63.472L59.5789 61.456H59.5549V63.184C59.5549 63.8 59.2549 64.108 58.6549 64.108ZM67.4005 64.132C66.7045 64.132 66.1045 64.008 65.6005 63.76C65.1045 63.504 64.7205 63.148 64.4485 62.692C64.1845 62.228 64.0525 61.684 64.0525 61.06C64.0525 60.452 64.1805 59.92 64.4365 59.464C64.6925 59 65.0485 58.64 65.5045 58.384C65.9685 58.12 66.4925 57.988 67.0765 57.988C67.5005 57.988 67.8845 58.06 68.2285 58.204C68.5725 58.34 68.8685 58.54 69.1165 58.804C69.3645 59.06 69.5525 59.376 69.6805 59.752C69.8085 60.12 69.8725 60.532 69.8725 60.988C69.8725 61.14 69.8245 61.256 69.7285 61.336C69.6325 61.408 69.4925 61.444 69.3085 61.444H65.5405V60.508H68.5645L68.3725 60.676C68.3725 60.348 68.3245 60.076 68.2285 59.86C68.1325 59.636 67.9925 59.468 67.8085 59.356C67.6325 59.244 67.4125 59.188 67.1485 59.188C66.8525 59.188 66.6005 59.256 66.3925 59.392C66.1845 59.528 66.0245 59.724 65.9125 59.98C65.8005 60.236 65.7445 60.544 65.7445 60.904V61C65.7445 61.608 65.8845 62.056 66.1645 62.344C66.4525 62.632 66.8765 62.776 67.4365 62.776C67.6285 62.776 67.8485 62.752 68.0965 62.704C68.3445 62.656 68.5765 62.58 68.7925 62.476C68.9765 62.388 69.1405 62.36 69.2845 62.392C69.4285 62.416 69.5405 62.48 69.6205 62.584C69.7005 62.688 69.7445 62.808 69.7525 62.944C69.7685 63.08 69.7405 63.216 69.6685 63.352C69.5965 63.48 69.4765 63.588 69.3085 63.676C69.0365 63.828 68.7285 63.94 68.3845 64.012C68.0485 64.092 67.7205 64.132 67.4005 64.132ZM73.7833 64.132C73.2313 64.132 72.7673 64.04 72.3913 63.856C72.0233 63.672 71.7473 63.404 71.5633 63.052C71.3873 62.7 71.2993 62.256 71.2993 61.72V59.464H70.7953C70.5713 59.464 70.3953 59.404 70.2673 59.284C70.1473 59.164 70.0873 59 70.0873 58.792C70.0873 58.568 70.1473 58.4 70.2673 58.288C70.3953 58.168 70.5713 58.108 70.7953 58.108H71.2993V57.196C71.2993 56.892 71.3793 56.664 71.5393 56.512C71.6993 56.352 71.9233 56.272 72.2113 56.272C72.5073 56.272 72.7313 56.352 72.8833 56.512C73.0353 56.664 73.1113 56.892 73.1113 57.196V58.108H74.2513C74.4753 58.108 74.6473 58.168 74.7673 58.288C74.8873 58.4 74.9473 58.568 74.9473 58.792C74.9473 59 74.8873 59.164 74.7673 59.284C74.6473 59.404 74.4753 59.464 74.2513 59.464H73.1113V61.648C73.1113 61.984 73.1873 62.236 73.3393 62.404C73.4993 62.572 73.7513 62.656 74.0953 62.656C74.2153 62.656 74.3273 62.644 74.4313 62.62C74.5353 62.596 74.6313 62.58 74.7193 62.572C74.8313 62.564 74.9233 62.6 74.9953 62.68C75.0673 62.752 75.1033 62.916 75.1033 63.172C75.1033 63.364 75.0713 63.532 75.0073 63.676C74.9433 63.82 74.8313 63.924 74.6713 63.988C74.5673 64.028 74.4233 64.06 74.2393 64.084C74.0633 64.116 73.9113 64.132 73.7833 64.132Z" fill="#FE7A36"/>
</svg>
