<svg xmlns="http://www.w3.org/2000/svg" version="1.1" xmlns:xlink="http://www.w3.org/1999/xlink" xmlns:svgjs="http://svgjs.dev/svgjs" width="1440" height="560" preserveAspectRatio="none" viewBox="0 0 1440 560">
    <g mask="url(&quot;#SvgjsMask1049&quot;)" fill="none">
        <rect width="1440" height="560" x="0" y="0" fill="rgba(15, 33, 103, 1)"></rect>
        <path d="M0,352.198C82.383,353.419,165.577,408.107,241.081,375.129C318.407,341.355,364.502,259.006,394.2,180.025C422.736,104.135,417.768,21.813,403.975,-58.083C390.494,-136.175,373.716,-219.537,315.871,-273.704C259.741,-326.265,177.023,-334.694,100.498,-342.264C34.555,-348.787,-26.842,-324.88,-92.22,-314.071C-168.43,-301.471,-254.255,-320.411,-315.602,-273.471C-379.987,-224.206,-411.344,-141.046,-423.166,-60.842C-435.012,19.522,-414.012,99.786,-381.599,174.271C-348.737,249.787,-311.171,333.245,-236.53,368.048C-163.432,402.132,-80.645,351.002,0,352.198" fill="#0a1543"></path>
        <path d="M1440 1086.688C1566.352 1114.79 1703.98 1209.929 1815.9569999999999 1145.001 1926.883 1080.682 1903.416 912.232 1948.129 792.0550000000001 1988.882 682.521 2077.214 586.265 2067.163 469.828 2056.945 351.457 1966.3020000000001 260.873 1894.128 166.49599999999998 1817.3690000000001 66.12299999999999 1755.774-67.32500000000005 1633.128-97.73299999999995 1510.716-128.08299999999997 1391.983-43.32299999999998 1279.728 14.163000000000011 1184.961 62.69400000000002 1104.48 128.39 1034.6399999999999 208.75400000000002 964.711 289.221 908.727 377.475 875.861 478.889 837.866 596.129 771.814 729.986 830.619 838.2950000000001 889.811 947.317 1043.199 951.857 1158.076 998.683 1251.125 1036.6109999999999 1341.915 1064.873 1440 1086.688" fill="#142d8b"></path>
    </g>
    <defs>
        <mask id="SvgjsMask1049">
            <rect width="1440" height="560" fill="#ffffff"></rect>
        </mask>
    </defs>
</svg>